<svg width="16" height="16" viewBox="0 0 16 16" fill="none" xmlns="http://www.w3.org/2000/svg">
<path d="M6.66667 6.15381C6.298 6.15381 6 6.42889 6 6.76919V11.6923C6 12.0326 6.298 12.3077 6.66667 12.3077C7.03533 12.3077 7.33333 12.0326 7.33333 11.6923V6.76919C7.33333 6.42889 7.03533 6.15381 6.66667 6.15381Z" fill="#2E2E2E" fill-opacity="0.85"/>
<path d="M9.33268 6.15381C8.96402 6.15381 8.66602 6.42889 8.66602 6.76919V11.6923C8.66602 12.0326 8.96402 12.3077 9.33268 12.3077C9.70135 12.3077 9.99935 12.0326 9.99935 11.6923V6.76919C9.99935 6.42889 9.70135 6.15381 9.33268 6.15381Z" fill="#2E2E2E" fill-opacity="0.85"/>
<path d="M10 0H6C5.26467 0 4.66667 0.552 4.66667 1.23077V2.46154H2.66667H0.666667C0.298 2.46154 0 2.73662 0 3.07692C0 3.41723 0.298 3.69231 0.666667 3.69231H2V14.1538C2 15.1717 2.89733 16 4 16H12C13.1027 16 14 15.1717 14 14.1538V3.69231H15.3333C15.702 3.69231 16 3.41723 16 3.07692C16 2.73662 15.702 2.46154 15.3333 2.46154H13.3333H11.3333V1.23077C11.3333 0.552 10.7353 0 10 0ZM12.6667 14.1538C12.6667 14.4935 12.368 14.7692 12 14.7692H4C3.632 14.7692 3.33333 14.4935 3.33333 14.1538V3.69231H12.6667V14.1538ZM6 2.46154V1.23077H10V2.46154H6Z" fill="#2E2E2E" fill-opacity="0.85"/>
</svg>
