<svg width="16" height="16" viewBox="0 0 16 16" fill="none" xmlns="http://www.w3.org/2000/svg">
<path d="M7.58397 14.1787C7.6767 14.2876 7.83283 14.3529 8 14.3529C8.16717 14.3529 8.3233 14.2876 8.41603 14.1787C9.59933 12.79 11.3422 11.075 12.5568 9.33075C13.5279 7.9361 14 6.74661 14 5.69439C14 3.1059 11.3084 1 8 1C4.6916 1 2 3.1059 2 5.69439C2 6.74661 2.4721 7.9361 3.44323 9.33075C4.65687 11.0737 6.4031 12.7929 7.58397 14.1787ZM8 1.7824C10.757 1.7824 13 3.53732 13 5.69439C13 6.61251 12.5678 7.67955 11.6786 8.95645C10.6317 10.4599 9.1378 11.9851 8 13.2672C6.86237 11.9852 5.36833 10.46 4.32137 8.95645C3.43223 7.67955 3 6.61251 3 5.69439C3 3.53732 5.243 1.7824 8 1.7824Z" fill="#2E2E2E"/>
<path d="M8 8.0418C9.6542 8.0418 11 6.98885 11 5.69461C11 4.40036 9.6542 3.34741 8 3.34741C6.3458 3.34741 5 4.40036 5 5.69461C5 6.98885 6.3458 8.0418 8 8.0418ZM8 4.12981C9.1028 4.12981 10 4.83178 10 5.69461C10 6.55744 9.1028 7.25941 8 7.25941C6.8972 7.25941 6 6.55744 6 5.69461C6 4.83178 6.8972 4.12981 8 4.12981Z" fill="#2E2E2E"/>
</svg>
