<svg width="16" height="16" viewBox="0 0 16 16" fill="none" xmlns="http://www.w3.org/2000/svg">
<path d="M8.00001 8.75903C4.13086 8.75903 2 10.4648 2 13.5621C2 13.804 2.21039 14 2.46997 14H13.53C13.7896 14 14 13.804 14 13.5621C14 10.4649 11.8692 8.75903 8.00001 8.75903ZM2.95704 13.1241C3.1419 10.8083 4.83615 9.63498 8.00001 9.63498C11.1639 9.63498 12.8581 10.8083 13.0432 13.1241H2.95704Z" fill="#2E2E2E" fill-opacity="0.6"/>
<path d="M7.99981 2C6.22252 2 4.88232 3.27404 4.88232 4.96342C4.88232 6.70228 6.28082 8.11676 7.99981 8.11676C9.7188 8.11676 11.1173 6.70228 11.1173 4.96356C11.1173 3.27404 9.7771 2 7.99981 2ZM7.99981 7.24098C6.79903 7.24098 5.82227 6.21935 5.82227 4.96356C5.82227 3.75391 6.73809 2.87592 7.99981 2.87592C9.24134 2.87592 10.1774 3.77331 10.1774 4.96356C10.1774 6.21935 9.20059 7.24098 7.99981 7.24098Z" fill="#2E2E2E" fill-opacity="0.6"/>
</svg>
