<svg width="13" height="13" viewBox="0 0 13 13" fill="none" xmlns="http://www.w3.org/2000/svg">
<path d="M7.72168 6.39963L12.2083 1.9128C12.3317 1.78929 12.3998 1.62451 12.4 1.4488C12.4 1.273 12.3319 1.10802 12.2083 0.984707L11.8151 0.591634C11.6915 0.467829 11.5268 0.400024 11.3509 0.400024C11.1752 0.400024 11.0105 0.467829 10.8869 0.591634L6.40022 5.07817L1.91339 0.591634C1.78998 0.467829 1.6251 0.400024 1.44929 0.400024C1.27368 0.400024 1.1088 0.467829 0.98539 0.591634L0.592024 0.984707C0.336024 1.24071 0.336024 1.6571 0.592024 1.9128L5.07876 6.39963L0.592024 10.8863C0.468512 11.01 0.400512 11.1748 0.400512 11.3505C0.400512 11.5262 0.468512 11.6909 0.592024 11.8146L0.985293 12.2076C1.10871 12.3313 1.27368 12.3992 1.4492 12.3992C1.625 12.3992 1.78988 12.3313 1.91329 12.2076L6.40012 7.721L10.8868 12.2076C11.0104 12.3313 11.1751 12.3992 11.3508 12.3992H11.351C11.5267 12.3992 11.6914 12.3313 11.815 12.2076L12.2082 11.8146C12.3316 11.691 12.3997 11.5262 12.3997 11.3505C12.3997 11.1748 12.3316 11.01 12.2082 10.8864L7.72168 6.39963Z" fill="#E26C6C"/>
</svg>
