<svg width="15" height="15" viewBox="0 0 15 15" fill="none" xmlns="http://www.w3.org/2000/svg">
<path d="M12.3196 7.50037C12.0238 7.50037 11.7839 7.74019 11.7839 8.03602V13.3923C11.7839 13.6882 11.5441 13.928 11.2483 13.928H1.6069C1.31107 13.928 1.07126 13.6882 1.07126 13.3923V2.67966C1.07126 2.38383 1.31107 2.14401 1.6069 2.14401H8.03452C8.33036 2.14401 8.57017 1.9042 8.57017 1.60837C8.57017 1.31253 8.33036 1.07275 8.03452 1.07275H1.6069C0.719435 1.07275 0 1.79219 0 2.67966V13.3923C0 14.2798 0.719435 14.9993 1.6069 14.9993H11.2483C12.1358 14.9993 12.8552 14.2798 12.8552 13.3923V8.03599C12.8552 7.74019 12.6154 7.50037 12.3196 7.50037Z" fill="#2E2E2E" fill-opacity="0.85"/>
<path d="M14.4003 0.600652C14.0157 0.215999 13.494 -5.42955e-05 12.9501 8.47427e-06C12.4059 -0.00156077 11.8837 0.214869 11.5002 0.600997L4.44474 7.65581C4.38621 7.71478 4.34205 7.78647 4.31566 7.86524L3.2444 11.0791C3.1509 11.3597 3.30265 11.663 3.58332 11.7565C3.63777 11.7746 3.6948 11.7839 3.75217 11.784C3.80967 11.7839 3.86682 11.7746 3.92143 11.7567L7.13524 10.6854C7.21417 10.659 7.28589 10.6147 7.34467 10.5558L14.4001 3.50039C15.2008 2.6997 15.2009 1.40144 14.4003 0.600652ZM13.6427 2.74352L6.67941 9.70678L4.599 10.4015L5.29157 8.32374L12.2575 1.36051C12.6405 0.978306 13.2608 0.978934 13.643 1.36189C13.8256 1.54483 13.9284 1.79249 13.9292 2.05095C13.9299 2.31078 13.8267 2.5601 13.6427 2.74352Z" fill="#2E2E2E" fill-opacity="0.85"/>
</svg>
