<svg width="14" height="16" viewBox="0 0 14 16" fill="none" xmlns="http://www.w3.org/2000/svg">
<path d="M7.00013 8.47266C2.48613 8.47266 0.000118256 10.6081 0.000118256 14.4857C0.000118256 14.7886 0.245571 15.034 0.548418 15.034H13.4518C13.7547 15.034 14.0001 14.7886 14.0001 14.4857C14.0001 10.6083 11.5141 8.47266 7.00013 8.47266ZM1.11667 13.9374C1.33234 11.0382 3.30896 9.56928 7.00013 9.56928C10.6913 9.56928 12.668 11.0382 12.8838 13.9374H1.11667Z" fill="#4B84F4"/>
<path d="M7.00001 0C4.9265 0 3.36294 1.59501 3.36294 3.71001C3.36294 5.88695 4.99452 7.65779 7.00001 7.65779C9.0055 7.65779 10.6371 5.88695 10.6371 3.71019C10.6371 1.59502 9.07352 0 7.00001 0ZM7.00001 6.56137C5.5991 6.56137 4.45954 5.28235 4.45954 3.71019C4.45954 2.19578 5.528 1.0966 7.00001 1.0966C8.44846 1.0966 9.54048 2.22008 9.54048 3.71019C9.54048 5.28235 8.40093 6.56137 7.00001 6.56137Z" fill="#4B84F4"/>
</svg>
