<svg width="14" height="16" viewBox="0 0 14 16" fill="none" xmlns="http://www.w3.org/2000/svg">
<path d="M6.51463 15.7912C6.62282 15.9217 6.80497 16 7 16C7.19503 16 7.37718 15.9217 7.48537 15.7912C8.86589 14.1273 10.8993 12.0722 12.3162 9.98222C13.4492 8.31109 14 6.88581 14 5.625C14 2.52337 10.8598 0 7 0C3.1402 0 0 2.52337 0 5.625C0 6.88581 0.550783 8.31109 1.68377 9.98222C3.09968 12.0707 5.13695 14.1307 6.51463 15.7912ZM7 0.9375C10.2165 0.9375 12.8333 3.04031 12.8333 5.625C12.8333 6.72512 12.3291 8.00369 11.2917 9.53372C10.0704 11.3352 8.32743 13.1627 7 14.699C5.67276 13.1629 3.92972 11.3353 2.70826 9.53372C1.67094 8.00369 1.16667 6.72512 1.16667 5.625C1.16667 3.04031 3.7835 0.9375 7 0.9375Z" fill="#4B84F4"/>
<path d="M7 8.43359C8.9299 8.43359 10.5 7.17191 10.5 5.62109C10.5 4.07028 8.9299 2.80859 7 2.80859C5.0701 2.80859 3.5 4.07028 3.5 5.62109C3.5 7.17191 5.0701 8.43359 7 8.43359ZM7 3.74609C8.2866 3.74609 9.33333 4.58722 9.33333 5.62109C9.33333 6.65497 8.2866 7.49609 7 7.49609C5.7134 7.49609 4.66667 6.65497 4.66667 5.62109C4.66667 4.58722 5.7134 3.74609 7 3.74609Z" fill="#4B84F4"/>
</svg>
