<svg width="21" height="21" viewBox="0 0 21 21" fill="none" xmlns="http://www.w3.org/2000/svg">
<path d="M5.13165 4.89502H5.43209C5.88868 4.89502 6.2588 4.51811 6.2588 4.05343V1.731V0.862298C6.2588 0.397618 5.88868 0.020752 5.43209 0.020752H5.13165C4.67511 0.020752 4.30499 0.397618 4.30499 0.862298V1.73104V4.05343C4.30499 4.51811 4.67511 4.89502 5.13165 4.89502Z" fill="white"/>
<path d="M15.7353 4.87427H16.0357C16.4922 4.87427 16.8624 4.4974 16.8624 4.03268V1.51068V0.841502C16.8624 0.376866 16.4922 0 16.0357 0H15.7353C15.2786 0 14.9085 0.376866 14.9085 0.841502V1.51068V4.03263C14.9086 4.4974 15.2787 4.87427 15.7353 4.87427Z" fill="white"/>
<path d="M19.6561 1.7312H17.5344V4.25315C17.5344 5.09443 16.8621 5.55845 16.0358 5.55845H15.7354C14.909 5.55845 14.2367 4.87402 14.2367 4.03274V1.7312H6.93083V4.05359C6.93083 4.89487 6.25855 5.5793 5.43214 5.5793H5.13171C4.30535 5.5793 3.63306 4.89487 3.63306 4.05359V1.7312H1.34396C0.602912 1.7312 0 2.34497 0 3.09941V19.6319C0 20.3863 0.602912 21.0001 1.34396 21.0001H19.6561C20.3971 21.0001 21 20.3863 21 19.6319V3.09941C21.0001 2.34501 20.3971 1.7312 19.6561 1.7312ZM19.6561 19.6319H1.34401L1.34396 7.14699H19.6563L19.657 19.6319C19.6569 19.6319 19.6567 19.6319 19.6561 19.6319Z" fill="white"/>
<path d="M11.1938 11.3346H13.6069C13.7026 11.3346 13.7802 11.2557 13.7802 11.1583V9.03107C13.7802 8.93369 13.7026 8.85474 13.6069 8.85474H11.1938C11.0981 8.85474 11.0206 8.93369 11.0206 9.03107V11.1583C11.0206 11.2557 11.0981 11.3346 11.1938 11.3346Z" fill="white"/>
<path d="M15.132 11.3346H17.5452C17.6408 11.3346 17.7184 11.2557 17.7184 11.1583V9.03107C17.7184 8.93369 17.6408 8.85474 17.5452 8.85474H15.132C15.0364 8.85474 14.9588 8.93369 14.9588 9.03107V11.1583C14.9588 11.2557 15.0364 11.3346 15.132 11.3346Z" fill="white"/>
<path d="M3.3175 14.8173H5.73062C5.82628 14.8173 5.90384 14.7384 5.90384 14.641V12.5137C5.90384 12.4164 5.82628 12.3374 5.73062 12.3374H3.3175C3.22184 12.3374 3.14429 12.4164 3.14429 12.5137V14.641C3.14429 14.7384 3.22184 14.8173 3.3175 14.8173Z" fill="white"/>
<path d="M7.25567 14.8173H9.66879C9.76445 14.8173 9.84201 14.7384 9.84201 14.641V12.5137C9.84201 12.4164 9.76445 12.3374 9.66879 12.3374H7.25567C7.16001 12.3374 7.08246 12.4164 7.08246 12.5137V14.641C7.08246 14.7384 7.16001 14.8173 7.25567 14.8173Z" fill="white"/>
<path d="M11.1938 14.8173H13.607C13.7026 14.8173 13.7802 14.7384 13.7802 14.641V12.5137C13.7802 12.4164 13.7026 12.3374 13.607 12.3374H11.1938C11.0982 12.3374 11.0206 12.4164 11.0206 12.5137V14.641C11.0206 14.7384 11.0982 14.8173 11.1938 14.8173Z" fill="white"/>
<path d="M15.132 14.8173H17.5452C17.6408 14.8173 17.7184 14.7384 17.7184 14.641V12.5137C17.7184 12.4164 17.6408 12.3374 17.5452 12.3374H15.132C15.0364 12.3374 14.9588 12.4164 14.9588 12.5137V14.641C14.9588 14.7384 15.0364 14.8173 15.132 14.8173Z" fill="white"/>
<path d="M5.73064 15.8198H3.31756C3.2219 15.8198 3.14435 15.8988 3.14435 15.9962V18.1234C3.14435 18.2208 3.2219 18.2998 3.31756 18.2998H5.73068C5.82634 18.2998 5.9039 18.2208 5.9039 18.1234V15.9962C5.90385 15.8988 5.8263 15.8198 5.73064 15.8198Z" fill="white"/>
<path d="M9.66885 15.8198H7.25573C7.16008 15.8198 7.08252 15.8988 7.08252 15.9962V18.1234C7.08252 18.2208 7.16008 18.2998 7.25573 18.2998H9.66885C9.76451 18.2998 9.84207 18.2208 9.84207 18.1234V15.9962C9.84207 15.8988 9.76451 15.8198 9.66885 15.8198Z" fill="white"/>
<path d="M13.6071 15.8198H11.194C11.0983 15.8198 11.0208 15.8988 11.0208 15.9962V18.1234C11.0208 18.2208 11.0983 18.2998 11.194 18.2998H13.6071C13.7028 18.2998 13.7803 18.2208 13.7803 18.1234V15.9962C13.7803 15.8988 13.7028 15.8198 13.6071 15.8198Z" fill="white"/>
<path d="M17.5452 15.8198H15.132C15.0364 15.8198 14.9588 15.8988 14.9588 15.9962V18.1234C14.9588 18.2208 15.0364 18.2998 15.132 18.2998H17.5452C17.6408 18.2998 17.7184 18.2208 17.7184 18.1234V15.9962C17.7184 15.8988 17.6408 15.8198 17.5452 15.8198Z" fill="white"/>
</svg>
