<svg width="16" height="16" viewBox="0 0 16 16" fill="none" xmlns="http://www.w3.org/2000/svg">
<path d="M13.6875 3H2.31251C1.58875 3 1 3.61678 1 4.37501V12.625C1 13.3832 1.58875 14 2.31251 14H13.6875C14.4113 14 15 13.3832 15 12.625V4.37501C15 3.61678 14.4113 3 13.6875 3ZM13.6875 3.91666C13.7469 3.91666 13.8035 3.92958 13.8552 3.95215L8 9.26851L2.14479 3.95215C2.19649 3.92961 2.25304 3.91666 2.31248 3.91666H13.6875ZM13.6875 13.0833H2.31251C2.07112 13.0833 1.875 12.8779 1.875 12.625V4.92061L7.71331 10.2214C7.79578 10.2962 7.89789 10.3333 8 10.3333C8.10211 10.3333 8.20422 10.2962 8.28669 10.2214L14.125 4.92061V12.625C14.125 12.8779 13.9289 13.0833 13.6875 13.0833Z" fill="#2E2E2E" fill-opacity="0.8"/>
</svg>
