<svg width="16" height="16" viewBox="0 0 16 16" fill="none" xmlns="http://www.w3.org/2000/svg">
<path d="M8.00013 8.58691C4.13099 8.58691 2.00012 10.4173 2.00012 13.741C2.00012 14.0006 2.21051 14.2109 2.47009 14.2109H13.5302C13.7897 14.2109 14.0001 14.0006 14.0001 13.741C14.0001 10.4175 11.8693 8.58691 8.00013 8.58691ZM2.95717 13.271C3.14203 10.7859 4.83627 9.52688 8.00013 9.52688C11.164 9.52688 12.8583 10.7859 13.0433 13.271H2.95717Z" fill="#2E2E2E" fill-opacity="0.8"/>
<path d="M7.99981 1.3335C6.22252 1.3335 4.88232 2.70065 4.88232 4.51351C4.88232 6.37946 6.28082 7.89732 7.99981 7.89732C9.7188 7.89732 11.1173 6.37946 11.1173 4.51366C11.1173 2.70065 9.7771 1.3335 7.99981 1.3335ZM7.99981 6.95753C6.79903 6.95753 5.82227 5.86122 5.82227 4.51366C5.82227 3.21559 6.73809 2.27344 7.99981 2.27344C9.24134 2.27344 10.1774 3.23642 10.1774 4.51366C10.1774 5.86122 9.20059 6.95753 7.99981 6.95753Z" fill="#2E2E2E" fill-opacity="0.8"/>
</svg>
