<svg width="15" height="16" viewBox="0 0 15 16" fill="none" xmlns="http://www.w3.org/2000/svg">
<path d="M13.8621 12.268L13.6542 11.4305C12.3278 13.5718 10.0255 14.9156 7.50866 15.0173C3.68073 15.0173 0.57759 11.9142 0.57759 8.08625H1.73277C1.73277 11.2762 4.31871 13.8621 7.50866 13.8621C9.69011 13.7666 11.6738 12.5702 12.7763 10.6854L11.6904 10.9742L11.4132 9.81902L13.7235 9.24143C14.0329 9.16512 14.3456 9.35381 14.4224 9.66307L15 11.9734L13.8621 12.268ZM1.2938 5.7759L3.60416 5.19831L3.32692 4.04313L2.24105 4.31459C3.34767 2.43645 5.33068 1.24709 7.50866 1.15518C10.6986 1.15518 13.2846 3.74112 13.2846 6.93107H14.4397C14.4397 3.10314 11.3366 0 7.50866 0C4.98564 0.0960604 2.67558 1.44054 1.34578 3.58683L1.15518 2.74933L0 3.02657L0.57759 5.33693C0.590694 5.38133 0.653723 5.57663 0.857757 5.69828C1.05342 5.81492 1.24619 5.78474 1.2938 5.7759Z" fill="#4B84F4"/>
</svg>
