<svg width="16" height="16" viewBox="0 0 16 16" fill="none" xmlns="http://www.w3.org/2000/svg">
<path d="M8.00105 1C4.14268 1 1.00012 4.14069 1.00012 7.99906C1.00012 11.8574 4.14268 14.9979 8.00105 14.9979C11.8254 14.9979 14.9451 11.905 15.0001 8.00466C15.0001 8.00256 15.0001 8.00069 15.0001 7.99859C15.0001 7.74265 14.7894 7.53196 14.5335 7.53196C14.5333 7.53196 14.533 7.53196 14.533 7.53196H8.46629V1.46524C8.46536 1.21045 8.25607 1.00093 8.00105 1ZM7.53395 2.0273V7.99929C7.53395 8.25548 7.74464 8.46616 8.00059 8.46616H13.9691C13.6788 11.6344 11.1599 14.0656 8.00105 14.0656C4.64781 14.0656 1.93433 11.3523 1.93433 7.99906C1.93433 4.81148 4.41123 2.27741 7.53395 2.0273Z" fill="#2E2E2E" fill-opacity="0.8"/>
<path d="M9.63844 1.20703C9.63704 1.20703 9.63564 1.20703 9.63424 1.20703C9.37829 1.20703 9.1676 1.41772 9.1676 1.67367V6.36849C9.1676 6.62444 9.37829 6.83512 9.63424 6.83512H14.3246C14.5806 6.83489 14.791 6.6242 14.791 6.36849C14.791 6.32719 14.7854 6.28612 14.7747 6.24646C14.0983 3.75136 12.1781 1.84865 9.75043 1.2222C9.71403 1.21263 9.67623 1.2075 9.63844 1.20703ZM10.1018 2.46018C11.6788 3.06727 12.8965 4.27586 13.5348 5.90092H10.1018V2.46018Z" fill="#2E2E2E" fill-opacity="0.8"/>
</svg>
