<svg width="15" height="15" viewBox="0 0 15 15" fill="none" xmlns="http://www.w3.org/2000/svg">
<path d="M7.49987 0C3.36474 0 0 3.36447 0 7.50014C0 11.6358 3.36474 15.0003 7.49987 15.0003C11.6358 15.0003 15 11.6358 15 7.50014C15 3.36447 11.6358 0 7.49987 0ZM7.49987 14.0003C3.91579 14.0003 0.999964 11.0845 0.999964 7.50014C0.999964 3.91579 3.91605 0.999964 7.49987 0.999964C11.0845 0.999964 14 3.91579 14 7.50014C14 11.0845 11.0848 14.0003 7.49987 14.0003Z" fill="#4B84F4"/>
<path d="M11.2138 6.95343H7.99943V2.70324C7.99943 2.42705 7.7755 2.20312 7.49958 2.20312C7.22392 2.20312 7 2.42732 7 2.70324V7.95312H11.2138C11.4897 7.95312 11.7137 7.72947 11.7134 7.45327C11.7134 7.17735 11.4892 6.95343 11.2138 6.95343Z" fill="#4B84F4"/>
</svg>
