<svg width="14" height="16" viewBox="0 0 14 16" fill="none" xmlns="http://www.w3.org/2000/svg">
<path d="M7.00014 8.47266C2.48613 8.47266 0.00012207 10.6081 0.00012207 14.4857C0.00012207 14.7886 0.245574 15.034 0.548421 15.034H13.4518C13.7547 15.034 14.0001 14.7886 14.0001 14.4857C14.0002 10.6083 11.5141 8.47266 7.00014 8.47266ZM1.11667 13.9374C1.33234 11.0382 3.30896 9.56928 7.00014 9.56928C10.6913 9.56928 12.668 11.0382 12.8838 13.9374H1.11667Z" fill="#4B84F4"/>
<path d="M6.99998 0C4.92648 0 3.36292 1.59501 3.36292 3.71001C3.36292 5.88695 4.99449 7.65779 6.99998 7.65779C9.00548 7.65779 10.6371 5.88695 10.6371 3.71019C10.6371 1.59502 9.07349 0 6.99998 0ZM6.99998 6.56137C5.59907 6.56137 4.45951 5.28235 4.45951 3.71019C4.45951 2.19578 5.52797 1.0966 6.99998 1.0966C8.44843 1.0966 9.54045 2.22008 9.54045 3.71019C9.54045 5.28235 8.4009 6.56137 6.99998 6.56137Z" fill="#4B84F4"/>
</svg>
